# xmcd
#
# Track frame offsets:
#	150
#	13225
#	25486
#	42843
#	60897
#	70242
#	81915
#	96091
#	110483
#	128526
#	142613
#	151938
#	168045
#	180866
#
# Disc length: 2596 seconds
#
# Revision: 1
# Processed by: cddbd v1.5.2PL0 Copyright (c) Steve Scherf et al.
# Submitted via: audiograbber 1.83.01
#
DISCID=9f0a220e
DTITLE=Elizabeth Cook - Welder
DYEAR=2010
DGENRE=Country
TTITLE0=All The Time
TTITLE1=El Camino
TTITLE2=Not California
TTITLE3=Heroin Addict Sister
TTITLE4=Yes To Booty
TTITLE5=Blackland Farmer
TTITLE6=Girlfriend Tonight
TTITLE7=Rock 'n' Roll Man
TTITLE8=Mama's Funeral
TTITLE9=I'm Beginning To Forget
TTITLE10=Snake In The Bed
TTITLE11=Follow You Like Smoke
TTITLE12=I'll Never Know
TTITLE13=Til Then
EXTD=
EXTT0=
EXTT1=
EXTT2=
EXTT3=
EXTT4=
EXTT5=
EXTT6=
EXTT7=
EXTT8=
EXTT9=
EXTT10=
EXTT11=
EXTT12=
EXTT13=
PLAYORDER=
